999
dxflib 3.3.4.0
  0
SECTION
  2
HEADER
  9
$ACADVER
  1
AC1015
  9
$HANDSEED
  5
FFFF
  9
$DIMADEC
 70
0
  9
$DIMASZ
 40
2.5
  9
$DIMAUNIT
 70
0
  9
$DIMAZIN
 70
2
  9
$DIMDEC
 70
4
  9
$DIMEXE
 40
1.25
  9
$DIMEXO
 40
0.625
  9
$DIMGAP
 40
0.625
  9
$DIMLUNIT
 70
2
  9
$DIMTSZ
 40
0.0
  9
$DIMTXT
 40
2.5
  9
$DIMZIN
 70
8
  9
$DWGCODEPAGE
  3
ANSI_1252
  9
$INSUNITS
 70
4
  9
$LTSCALE
 40
1.0
  0
ENDSEC
  0
SECTION
  2
TABLES
  0
TABLE
  2
VPORT
  5
8
100
AcDbSymbolTable
 70
1
  0
VPORT
  5
30
100
AcDbSymbolTableRecord
100
AcDbViewportTableRecord
  2
*Active
 70
0
 10
0.0
 20
0.0
 11
1.0
 21
1.0
 12
286.3055555555554861
 22
148.5
 13
0.0
 23
0.0
 14
10.0
 24
10.0
 15
10.0
 25
10.0
 16
0.0
 26
0.0
 36
1.0
 17
0.0
 27
0.0
 37
0.0
 40
297.0
 41
1.92798353909465
 42
50.0
 43
0.0
 44
0.0
 50
0.0
 51
0.0
 71
0
 72
100
 73
1
 74
3
 75
1
 76
1
 77
0
 78
0
281
0
 65
1
110
0.0
120
0.0
130
0.0
111
1.0
121
0.0
131
0.0
112
0.0
122
1.0
132
0.0
 79
0
146
0.0
  0
ENDTAB
  0
TABLE
  2
LTYPE
  5
5
100
AcDbSymbolTable
 70
21
  0
LTYPE
  5
16
100
AcDbSymbolTableRecord
100
AcDbLinetypeTableRecord
  2
CONTINUOUS
 70
0
  3
Solid line
 72
65
 73
0
 40
0.0
  0
LTYPE
  5
31
100
AcDbSymbolTableRecord
100
AcDbLinetypeTableRecord
  2
CENTER2
 70
0
  3
Center (.5x) ___ _ ___ _ ___ _ ___ _ ___ _ ___
 72
65
 73
4
 40
28.5749999999999993
 49
19.0500000000000007
 74
0
 49
-3.1749999999999998
 74
0
 49
3.1749999999999998
 74
0
 49
-3.1749999999999998
 74
0
  0
LTYPE
  5
32
100
AcDbSymbolTableRecord
100
AcDbLinetypeTableRecord
  2
DIVIDEX2
 70
0
  3
Divide (2x) ________  .  .  ________  .  .  _
 72
65
 73
6
 40
63.5
 49
25.3999999999999986
 74
0
 49
-12.6999999999999993
 74
0
 49
0.0
 74
0
 49
-12.6999999999999993
 74
0
 49
0.0
 74
0
 49
-12.6999999999999993
 74
0
  0
LTYPE
  5
33
100
AcDbSymbolTableRecord
100
AcDbLinetypeTableRecord
  2
DOT2
 70
0
  3
Dot (.5x) .....................................
 72
65
 73
2
 40
3.1749999999999998
 49
0.0
 74
0
 49
-3.1749999999999998
 74
0
  0
LTYPE
  5
34
100
AcDbSymbolTableRecord
100
AcDbLinetypeTableRecord
  2
DASHDOT2
 70
0
  3
Dash dot (.5x) _._._._._._._._._._._._._._._.
 72
65
 73
4
 40
12.6999999999999993
 49
6.3499999999999996
 74
0
 49
-3.1749999999999998
 74
0
 49
0.0
 74
0
 49
-3.1749999999999998
 74
0
  0
LTYPE
  5
35
100
AcDbSymbolTableRecord
100
AcDbLinetypeTableRecord
  2
DIVIDE
 70
0
  3
Divide ____ . . ____ . . ____ . . ____ . . ____
 72
65
 73
6
 40
31.75
 49
12.6999999999999993
 74
0
 49
-6.3499999999999996
 74
0
 49
0.0
 74
0
 49
-6.3499999999999996
 74
0
 49
0.0
 74
0
 49
-6.3499999999999996
 74
0
  0
LTYPE
  5
36
100
AcDbSymbolTableRecord
100
AcDbLinetypeTableRecord
  2
DASHDOT
 70
0
  3
Dash dot __ . __ . __ . __ . __ . __ . __ . __
 72
65
 73
4
 40
25.3999999999999986
 49
12.6999999999999993
 74
0
 49
-6.3499999999999996
 74
0
 49
0.0
 74
0
 49
-6.3499999999999996
 74
0
  0
LTYPE
  5
37
100
AcDbSymbolTableRecord
100
AcDbLinetypeTableRecord
  2
BORDER
 70
0
  3
Border __ __ . __ __ . __ __ . __ __ . __ __ .
 72
65
 73
6
 40
44.4500000000000028
 49
12.6999999999999993
 74
0
 49
-6.3499999999999996
 74
0
 49
12.6999999999999993
 74
0
 49
-6.3499999999999996
 74
0
 49
0.0
 74
0
 49
-6.3499999999999996
 74
0
  0
LTYPE
  5
38
100
AcDbSymbolTableRecord
100
AcDbLinetypeTableRecord
  2
DASHDOTX2
 70
0
  3
Dash dot (2x) ____  .  ____  .  ____  .  ___
 72
65
 73
4
 40
50.7999999999999972
 49
25.3999999999999986
 74
0
 49
-12.6999999999999993
 74
0
 49
0.0
 74
0
 49
-12.6999999999999993
 74
0
  0
LTYPE
  5
39
100
AcDbSymbolTableRecord
100
AcDbLinetypeTableRecord
  2
CENTERX2
 70
0
  3
Center (2x) ________  __  ________  __  _____
 72
65
 73
4
 40
101.5999999999999943
 49
63.5
 74
0
 49
-12.6999999999999993
 74
0
 49
12.6999999999999993
 74
0
 49
-12.6999999999999993
 74
0
  0
LTYPE
  5
3A
100
AcDbSymbolTableRecord
100
AcDbLinetypeTableRecord
  2
BORDER2
 70
0
  3
Border (.5x) __.__.__.__.__.__.__.__.__.__.__.
 72
65
 73
6
 40
22.2250000000000014
 49
6.3499999999999996
 74
0
 49
-3.1749999999999998
 74
0
 49
6.3499999999999996
 74
0
 49
-3.1749999999999998
 74
0
 49
0.0
 74
0
 49
-3.1749999999999998
 74
0
  0
LTYPE
  5
3B
100
AcDbSymbolTableRecord
100
AcDbLinetypeTableRecord
  2
BORDERX2
 70
0
  3
Border (2x) ____  ____  .  ____  ____  .  ___
 72
65
 73
6
 40
88.9000000000000057
 49
25.3999999999999986
 74
0
 49
-12.6999999999999993
 74
0
 49
25.3999999999999986
 74
0
 49
-12.6999999999999993
 74
0
 49
0.0
 74
0
 49
-12.6999999999999993
 74
0
  0
LTYPE
  5
14
100
AcDbSymbolTableRecord
100
AcDbLinetypeTableRecord
  2
BYBLOCK
 70
0
  3

 72
65
 73
0
 40
0.0
  0
LTYPE
  5
15
100
AcDbSymbolTableRecord
100
AcDbLinetypeTableRecord
  2
BYLAYER
 70
0
  3

 72
65
 73
0
 40
0.0
  0
LTYPE
  5
3C
100
AcDbSymbolTableRecord
100
AcDbLinetypeTableRecord
  2
DASHED2
 70
0
  3
Dashed (.5x) _ _ _ _ _ _ _ _ _ _ _ _ _ _ _ _ _
 72
65
 73
2
 40
9.5250000000000004
 49
6.3499999999999996
 74
0
 49
-3.1749999999999998
 74
0
  0
LTYPE
  5
3D
100
AcDbSymbolTableRecord
100
AcDbLinetypeTableRecord
  2
CENTER
 70
0
  3
Center ____ _ ____ _ ____ _ ____ _ ____ _ ____
 72
65
 73
4
 40
50.7999999999999972
 49
31.75
 74
0
 49
-6.3499999999999996
 74
0
 49
6.3499999999999996
 74
0
 49
-6.3499999999999996
 74
0
  0
LTYPE
  5
3E
100
AcDbSymbolTableRecord
100
AcDbLinetypeTableRecord
  2
DIVIDE2
 70
0
  3
Divide (.5x) __..__..__..__..__..__..__..__.._
 72
65
 73
6
 40
15.875
 49
6.3499999999999996
 74
0
 49
-3.1749999999999998
 74
0
 49
0.0
 74
0
 49
-3.1749999999999998
 74
0
 49
0.0
 74
0
 49
-3.1749999999999998
 74
0
  0
LTYPE
  5
3F
100
AcDbSymbolTableRecord
100
AcDbLinetypeTableRecord
  2
DASHED
 70
0
  3
Dashed __ __ __ __ __ __ __ __ __ __ __ __ __ _
 72
65
 73
2
 40
19.0500000000000007
 49
12.6999999999999993
 74
0
 49
-6.3499999999999996
 74
0
  0
LTYPE
  5
40
100
AcDbSymbolTableRecord
100
AcDbLinetypeTableRecord
  2
DOTX2
 70
0
  3
Dot (2x) .  .  .  .  .  .  .  .  .  .  .  .  .
 72
65
 73
2
 40
12.6999999999999993
 49
0.0
 74
0
 49
-12.6999999999999993
 74
0
  0
LTYPE
  5
41
100
AcDbSymbolTableRecord
100
AcDbLinetypeTableRecord
  2
DASHEDX2
 70
0
  3
Dashed (2x) ____  ____  ____  ____  ____  ___
 72
65
 73
2
 40
38.1000000000000014
 49
25.3999999999999986
 74
0
 49
-12.6999999999999993
 74
0
  0
LTYPE
  5
42
100
AcDbSymbolTableRecord
100
AcDbLinetypeTableRecord
  2
DOT
 70
0
  3
Dot . . . . . . . . . . . . . . . . . . . . . .
 72
65
 73
2
 40
6.3499999999999996
 49
0.0
 74
0
 49
-6.3499999999999996
 74
0
  0
ENDTAB
  0
TABLE
  2
LAYER
  5
2
100
AcDbSymbolTable
 70
9
  0
LAYER
  5
43
100
AcDbSymbolTableRecord
100
AcDbLayerTableRecord
  2
COM - Holes
 70
0
 62
7
420
0
  6
CONTINUOUS
370
25
390
F
  0
LAYER
  5
44
100
AcDbSymbolTableRecord
100
AcDbLayerTableRecord
  2
EXT - Holes
 70
0
 62
7
420
0
  6
CONTINUOUS
370
25
390
F
  0
LAYER
  5
45
100
AcDbSymbolTableRecord
100
AcDbLayerTableRecord
  2
INT - 1.5mm milling
 70
0
 62
7
420
0
  6
CONTINUOUS
370
25
390
F
  0
LAYER
  5
46
100
AcDbSymbolTableRecord
100
AcDbLayerTableRecord
  2
EXT - Outline
 70
0
 62
7
420
0
  6
CONTINUOUS
370
25
390
F
  0
LAYER
  5
47
100
AcDbSymbolTableRecord
100
AcDbLayerTableRecord
  2
INT - Holes
 70
0
 62
7
420
0
  6
CONTINUOUS
370
25
390
F
  0
LAYER
  5
48
100
AcDbSymbolTableRecord
100
AcDbLayerTableRecord
  2
INT - M2 countersinks
 70
0
 62
7
420
0
  6
CONTINUOUS
370
25
390
F
  0
LAYER
  5
49
100
AcDbSymbolTableRecord
100
AcDbLayerTableRecord
  2
INT - Outline
 70
0
 62
7
420
0
  6
CONTINUOUS
370
25
390
F
  0
LAYER
  5
10
100
AcDbSymbolTableRecord
100
AcDbLayerTableRecord
  2
0
 70
0
 62
7
420
16777215
  6
CONTINUOUS
370
25
390
F
  0
LAYER
  5
4A
100
AcDbSymbolTableRecord
100
AcDbLayerTableRecord
  2
EXT - Knob outline
 70
0
 62
7
420
0
  6
CONTINUOUS
370
25
390
F
  0
ENDTAB
  0
TABLE
  2
STYLE
  5
3
100
AcDbSymbolTable
 70
1
  0
STYLE
  5
4B
100
AcDbSymbolTableRecord
100
AcDbTextStyleTableRecord
  2
Standard
 70
0
 40
0.0
 41
1.0
 50
0.0
 71
0
 42
2.5
  3

  4

1001
ACAD
1000
txt
1071
0
  0
ENDTAB
  0
TABLE
  2
VIEW
  5
6
100
AcDbSymbolTable
 70
0
  0
ENDTAB
  0
TABLE
  2
UCS
  5
7
100
AcDbSymbolTable
 70
0
  0
ENDTAB
  0
TABLE
  2
APPID
  5
9
100
AcDbSymbolTable
 70
1
  0
APPID
  5
12
100
AcDbSymbolTableRecord
100
AcDbRegAppTableRecord
  2
ACAD
 70
0
  0
APPID
  5
4C
100
AcDbSymbolTableRecord
100
AcDbRegAppTableRecord
  2
QCAD
 70
0
  0
ENDTAB
  0
TABLE
  2
DIMSTYLE
  5
A
100
AcDbSymbolTable
 70
1
100
AcDbDimStyleTable
 71
0
  0
DIMSTYLE
105
27
100
AcDbSymbolTableRecord
100
AcDbDimStyleTableRecord
  2
Standard
 41
2.5
 42
0.625
 43
3.75
 44
1.25
 70
0
 73
0
 74
0
 77
1
 78
8
140
2.5
141
2.5
143
0.03937007874016
147
0.625
171
3
172
1
271
2
272
2
274
3
278
44
283
0
284
8
340
4B
  0
ENDTAB
  0
TABLE
  2
BLOCK_RECORD
  5
1
100
AcDbSymbolTable
 70
1
  0
BLOCK_RECORD
  5
1F
100
AcDbSymbolTableRecord
100
AcDbBlockTableRecord
  2
*Model_Space
340
22
  0
BLOCK_RECORD
  5
1B
100
AcDbSymbolTableRecord
100
AcDbBlockTableRecord
  2
*Paper_Space
340
1E
  0
BLOCK_RECORD
  5
23
100
AcDbSymbolTableRecord
100
AcDbBlockTableRecord
  2
*Paper_Space0
340
26
  0
BLOCK_RECORD
  5
4D
100
AcDbSymbolTableRecord
100
AcDbBlockTableRecord
  2
mode
340
0
  0
BLOCK_RECORD
  5
4E
100
AcDbSymbolTableRecord
100
AcDbBlockTableRecord
  2
MyBlock
340
0
  0
ENDTAB
  0
ENDSEC
  0
SECTION
  2
BLOCKS
  0
BLOCK
  5
20
100
AcDbEntity
  8
0
100
AcDbBlockBegin
  2
*Model_Space
 70
0
 10
0.0
 20
0.0
 30
0.0
  3
*Model_Space
  1

  0
ENDBLK
  5
21
100
AcDbEntity
  8
0
100
AcDbBlockEnd
  0
BLOCK
  5
1C
100
AcDbEntity
 67
1
  8
0
100
AcDbBlockBegin
  2
*Paper_Space
 70
0
 10
0.0
 20
0.0
 30
0.0
  3
*Paper_Space
  1

  0
ENDBLK
  5
1D
100
AcDbEntity
 67
1
  8
0
100
AcDbBlockEnd
  0
BLOCK
  5
24
100
AcDbEntity
  8
0
100
AcDbBlockBegin
  2
*Paper_Space0
 70
0
 10
0.0
 20
0.0
 30
0.0
  3
*Paper_Space0
  1

  0
ENDBLK
  5
25
100
AcDbEntity
  8
0
100
AcDbBlockEnd
  0
BLOCK
  5
4F
100
AcDbEntity
  8
0
100
AcDbBlockBegin
  2
mode
 70
0
 10
0.0
 20
0.0
 30
0.0
  3
mode
  1

  0
ENDBLK
  5
50
100
AcDbEntity
  8
0
100
AcDbBlockEnd
  0
BLOCK
  5
51
100
AcDbEntity
  8
0
100
AcDbBlockBegin
  2
MyBlock
 70
0
 10
0.0
 20
0.0
 30
0.0
  3
MyBlock
  1

  0
LINE
  5
52
100
AcDbEntity
100
AcDbLine
  8
0
 62
256
370
-1
  6
BYLAYER
 10
0.0
 20
0.0
 30
0.0
 11
50.0
 21
0.0
 31
0.0
  0
ARC
  5
53
100
AcDbEntity
  8
0
 62
256
370
-1
  6
BYLAYER
100
AcDbCircle
 10
25.0
 20
0.0
 30
0.0
 40
25.0
100
AcDbArc
 50
0.0
 51
180.0
  0
ENDBLK
  5
54
100
AcDbEntity
  8
0
100
AcDbBlockEnd
  0
ENDSEC
  0
SECTION
  2
ENTITIES
  0
LINE
  5
55
100
AcDbEntity
100
AcDbLine
  8
EXT - Outline
 62
256
370
-1
  6
BYLAYER
 10
188.5
 20
248.5
 30
0.0
 11
10.0
 21
248.5
 31
0.0
  0
LINE
  5
56
100
AcDbEntity
100
AcDbLine
  8
EXT - Outline
 62
256
370
-1
  6
BYLAYER
 10
10.0
 20
248.5
 30
0.0
 11
10.0
 21
70.0
 31
0.0
  0
LINE
  5
57
100
AcDbEntity
100
AcDbLine
  8
EXT - Outline
 62
256
370
-1
  6
BYLAYER
 10
10.0
 20
70.0
 30
0.0
 11
188.5
 21
70.0
 31
0.0
  0
LINE
  5
58
100
AcDbEntity
100
AcDbLine
  8
EXT - Outline
 62
256
370
-1
  6
BYLAYER
 10
188.5
 20
70.0
 30
0.0
 11
188.5
 21
248.5
 31
0.0
  0
LINE
  5
59
100
AcDbEntity
100
AcDbLine
  8
COM - Holes
 62
256
370
-1
  6
BYLAYER
 10
163.7675402079024423
 20
99.6892364744121551
 30
0.0
 11
165.7675402079024423
 21
99.6892364744121551
 31
0.0
  0
LINE
  5
5A
100
AcDbEntity
100
AcDbLine
  8
COM - Holes
 62
256
370
-1
  6
BYLAYER
 10
165.7675402079024423
 20
99.6892364744121551
 30
0.0
 11
165.7675402079024423
 21
165.6892364744121551
 31
0.0
  0
LINE
  5
5B
100
AcDbEntity
100
AcDbLine
  8
COM - Holes
 62
256
370
-1
  6
BYLAYER
 10
165.7675402079024423
 20
165.6892364744121551
 30
0.0
 11
163.7675402079024423
 21
165.6892364744121551
 31
0.0
  0
LINE
  5
5C
100
AcDbEntity
100
AcDbLine
  8
COM - Holes
 62
256
370
-1
  6
BYLAYER
 10
163.7675402079024423
 20
165.6892364744121551
 30
0.0
 11
163.7675402079024423
 21
99.6892364744121551
 31
0.0
  0
CIRCLE
  5
5D
100
AcDbEntity
100
AcDbCircle
  8
EXT - Knob outline
 62
256
370
-1
  6
BYLAYER
 10
34.0
 20
170.0
 30
0.0
 40
11.7050000000000001
  0
CIRCLE
  5
5E
100
AcDbEntity
100
AcDbCircle
  8
EXT - Knob outline
 62
256
370
-1
  6
BYLAYER
 10
35.0293886727615984
 20
100.9313865388391207
 30
0.0
 40
11.7050000000000001
  0
CIRCLE
  5
5F
100
AcDbEntity
100
AcDbCircle
  8
EXT - Knob outline
 62
256
370
-1
  6
BYLAYER
 10
165.0659936282630156
 20
215.1491314231819274
 30
0.0
 40
15.6750000000000007
  0
CIRCLE
  5
60
100
AcDbEntity
100
AcDbCircle
  8
COM - Holes
 62
256
370
-1
  6
BYLAYER
 10
165.0659936282630156
 20
215.1491314231819274
 30
0.0
 40
4.6500000000000004
  0
CIRCLE
  5
61
100
AcDbEntity
100
AcDbCircle
  8
COM - Holes
 62
256
370
-1
  6
BYLAYER
 10
34.0
 20
170.0
 30
0.0
 40
4.6500000000000004
  0
CIRCLE
  5
62
100
AcDbEntity
100
AcDbCircle
  8
COM - Holes
 62
256
370
-1
  6
BYLAYER
 10
35.0293886727615984
 20
100.9313865388391207
 30
0.0
 40
4.6500000000000004
  0
CIRCLE
  5
63
100
AcDbEntity
100
AcDbCircle
  8
INT - Holes
 62
256
370
-1
  6
BYLAYER
 10
165.0659936282630156
 20
206.1491314231819274
 30
0.0
 40
1.6499999999999999
  0
CIRCLE
  5
64
100
AcDbEntity
100
AcDbCircle
  8
INT - Holes
 62
256
370
-1
  6
BYLAYER
 10
164.7675402079024423
 20
168.1892364744121551
 30
0.0
 40
1.1000000000000001
  0
CIRCLE
  5
65
100
AcDbEntity
100
AcDbCircle
  8
INT - Holes
 62
256
370
-1
  6
BYLAYER
 10
164.7675402079024423
 20
97.1892364744121551
 30
0.0
 40
1.1000000000000001
  0
CIRCLE
  5
66
100
AcDbEntity
100
AcDbCircle
  8
INT - M2 countersinks
 62
256
370
-1
  6
BYLAYER
 10
164.7675402079024423
 20
168.1892364744121551
 30
0.0
 40
2.2999999999999998
  0
CIRCLE
  5
67
100
AcDbEntity
100
AcDbCircle
  8
INT - M2 countersinks
 62
256
370
-1
  6
BYLAYER
 10
164.7675402079024423
 20
97.1892364744121551
 30
0.0
 40
2.2999999999999998
  0
CIRCLE
  5
68
100
AcDbEntity
100
AcDbCircle
  8
INT - Holes
 62
256
370
-1
  6
BYLAYER
 10
48.0
 20
236.0
 30
0.0
 40
1.1000000000000001
  0
CIRCLE
  5
69
100
AcDbEntity
100
AcDbCircle
  8
INT - M2 countersinks
 62
256
370
-1
  6
BYLAYER
 10
48.0
 20
236.0
 30
0.0
 40
2.2999999999999998
  0
CIRCLE
  5
6A
100
AcDbEntity
100
AcDbCircle
  8
INT - Holes
 62
256
370
-1
  6
BYLAYER
 10
48.75
 20
191.0
 30
0.0
 40
1.1000000000000001
  0
CIRCLE
  5
6B
100
AcDbEntity
100
AcDbCircle
  8
INT - M2 countersinks
 62
256
370
-1
  6
BYLAYER
 10
48.75
 20
191.0
 30
0.0
 40
2.2999999999999998
  0
LINE
  5
6C
100
AcDbEntity
100
AcDbLine
  8
INT - Holes
 62
256
370
-1
  6
BYLAYER
 10
51.75
 20
238.0
 30
0.0
 11
146.75
 21
238.0
 31
0.0
  0
LINE
  5
6D
100
AcDbEntity
100
AcDbLine
  8
INT - Holes
 62
256
370
-1
  6
BYLAYER
 10
146.75
 20
238.0
 30
0.0
 11
146.75
 21
194.0
 31
0.0
  0
LINE
  5
6E
100
AcDbEntity
100
AcDbLine
  8
INT - Holes
 62
256
370
-1
  6
BYLAYER
 10
146.75
 20
194.0
 30
0.0
 11
51.75
 21
194.0
 31
0.0
  0
LINE
  5
6F
100
AcDbEntity
100
AcDbLine
  8
INT - Holes
 62
256
370
-1
  6
BYLAYER
 10
51.75
 20
194.0
 30
0.0
 11
51.75
 21
238.0
 31
0.0
  0
CIRCLE
  5
70
100
AcDbEntity
100
AcDbCircle
  8
INT - Holes
 62
256
370
-1
  6
BYLAYER
 10
150.0
 20
236.0
 30
0.0
 40
1.1000000000000001
  0
CIRCLE
  5
71
100
AcDbEntity
100
AcDbCircle
  8
INT - M2 countersinks
 62
256
370
-1
  6
BYLAYER
 10
150.0
 20
236.0
 30
0.0
 40
2.2999999999999998
  0
CIRCLE
  5
72
100
AcDbEntity
100
AcDbCircle
  8
INT - Holes
 62
256
370
-1
  6
BYLAYER
 10
149.75
 20
191.0
 30
0.0
 40
1.1000000000000001
  0
CIRCLE
  5
73
100
AcDbEntity
100
AcDbCircle
  8
INT - M2 countersinks
 62
256
370
-1
  6
BYLAYER
 10
149.75
 20
191.0
 30
0.0
 40
2.2999999999999998
  0
LINE
  5
74
100
AcDbEntity
100
AcDbLine
  8
INT - Holes
 62
256
370
-1
  6
BYLAYER
 10
20.0
 20
154.0
 30
0.0
 11
50.0
 21
154.0
 31
0.0
  0
LINE
  5
75
100
AcDbEntity
100
AcDbLine
  8
INT - Holes
 62
256
370
-1
  6
BYLAYER
 10
50.0
 20
154.0
 30
0.0
 11
50.0
 21
117.0
 31
0.0
  0
LINE
  5
76
100
AcDbEntity
100
AcDbLine
  8
INT - Holes
 62
256
370
-1
  6
BYLAYER
 10
50.0
 20
117.0
 30
0.0
 11
20.0
 21
117.0
 31
0.0
  0
LINE
  5
77
100
AcDbEntity
100
AcDbLine
  8
INT - Holes
 62
256
370
-1
  6
BYLAYER
 10
20.0
 20
117.0
 30
0.0
 11
20.0
 21
154.0
 31
0.0
  0
CIRCLE
  5
78
100
AcDbEntity
100
AcDbCircle
  8
INT - M2 countersinks
 62
256
370
-1
  6
BYLAYER
 10
22.0999999999999943
 20
157.0
 30
0.0
 40
2.2999999999999998
  0
CIRCLE
  5
79
100
AcDbEntity
100
AcDbCircle
  8
INT - Holes
 62
256
370
-1
  6
BYLAYER
 10
22.0999999999999943
 20
157.0
 30
0.0
 40
1.1000000000000001
  0
CIRCLE
  5
7A
100
AcDbEntity
100
AcDbCircle
  8
INT - M2 countersinks
 62
256
370
-1
  6
BYLAYER
 10
22.0
 20
114.0
 30
0.0
 40
2.2999999999999998
  0
CIRCLE
  5
7B
100
AcDbEntity
100
AcDbCircle
  8
INT - Holes
 62
256
370
-1
  6
BYLAYER
 10
22.0
 20
114.0
 30
0.0
 40
1.1000000000000001
  0
CIRCLE
  5
7C
100
AcDbEntity
100
AcDbCircle
  8
INT - M2 countersinks
 62
256
370
-1
  6
BYLAYER
 10
53.0
 20
114.0
 30
0.0
 40
2.2999999999999998
  0
CIRCLE
  5
7D
100
AcDbEntity
100
AcDbCircle
  8
INT - Holes
 62
256
370
-1
  6
BYLAYER
 10
53.0
 20
114.0
 30
0.0
 40
1.1000000000000001
  0
CIRCLE
  5
7E
100
AcDbEntity
100
AcDbCircle
  8
INT - M2 countersinks
 62
256
370
-1
  6
BYLAYER
 10
53.0
 20
157.0
 30
0.0
 40
2.2999999999999998
  0
CIRCLE
  5
7F
100
AcDbEntity
100
AcDbCircle
  8
INT - Holes
 62
256
370
-1
  6
BYLAYER
 10
53.0
 20
157.0
 30
0.0
 40
1.1000000000000001
  0
LINE
  5
80
100
AcDbEntity
100
AcDbLine
  8
EXT - Holes
 62
256
370
-1
  6
BYLAYER
 10
56.7234211759866298
 20
219.3798750844402718
 30
0.0
 11
82.2234211759866298
 21
219.3798750844402718
 31
0.0
  0
LINE
  5
81
100
AcDbEntity
100
AcDbLine
  8
EXT - Holes
 62
256
370
-1
  6
BYLAYER
 10
82.2234211759866298
 20
219.3798750844402718
 30
0.0
 11
82.2234211759866298
 21
229.9798750844402662
 31
0.0
  0
LINE
  5
82
100
AcDbEntity
100
AcDbLine
  8
EXT - Holes
 62
256
370
-1
  6
BYLAYER
 10
82.2234211759866298
 20
229.9798750844402662
 30
0.0
 11
56.7234211759866298
 21
229.9798750844402662
 31
0.0
  0
LINE
  5
83
100
AcDbEntity
100
AcDbLine
  8
EXT - Holes
 62
256
370
-1
  6
BYLAYER
 10
56.7234211759866298
 20
229.9798750844402662
 30
0.0
 11
56.7234211759866298
 21
219.3798750844402718
 31
0.0
  0
LINE
  5
84
100
AcDbEntity
100
AcDbLine
  8
EXT - Holes
 62
256
370
-1
  6
BYLAYER
 10
66.9734211759866298
 20
232.9798750844402662
 30
0.0
 11
72.4734211759866298
 21
232.9798750844402662
 31
0.0
  0
LINE
  5
85
100
AcDbEntity
100
AcDbLine
  8
EXT - Holes
 62
256
370
-1
  6
BYLAYER
 10
72.4734211759866298
 20
232.9798750844402662
 30
0.0
 11
72.4734211759866298
 21
235.4798750844402662
 31
0.0
  0
LINE
  5
86
100
AcDbEntity
100
AcDbLine
  8
EXT - Holes
 62
256
370
-1
  6
BYLAYER
 10
72.4734211759866298
 20
235.4798750844402662
 30
0.0
 11
66.9734211759866298
 21
235.4798750844402662
 31
0.0
  0
LINE
  5
87
100
AcDbEntity
100
AcDbLine
  8
EXT - Holes
 62
256
370
-1
  6
BYLAYER
 10
66.9734211759866298
 20
235.4798750844402662
 30
0.0
 11
66.9734211759866298
 21
232.9798750844402662
 31
0.0
  0
LINE
  5
88
100
AcDbEntity
100
AcDbLine
  8
EXT - Holes
 62
256
370
-1
  6
BYLAYER
 10
102.4734211759866298
 20
232.9798750844402662
 30
0.0
 11
102.4734211759866298
 21
235.4798750844402662
 31
0.0
  0
LINE
  5
89
100
AcDbEntity
100
AcDbLine
  8
EXT - Holes
 62
256
370
-1
  6
BYLAYER
 10
102.4734211759866298
 20
235.4798750844402662
 30
0.0
 11
96.9734211759866298
 21
235.4798750844402662
 31
0.0
  0
LINE
  5
8A
100
AcDbEntity
100
AcDbLine
  8
EXT - Holes
 62
256
370
-1
  6
BYLAYER
 10
96.9734211759866298
 20
235.4798750844402662
 30
0.0
 11
96.9734211759866298
 21
232.9798750844402662
 31
0.0
  0
LINE
  5
8B
100
AcDbEntity
100
AcDbLine
  8
EXT - Holes
 62
256
370
-1
  6
BYLAYER
 10
86.7234211759866298
 20
219.3798750844402718
 30
0.0
 11
112.2234211759866298
 21
219.3798750844402718
 31
0.0
  0
LINE
  5
8C
100
AcDbEntity
100
AcDbLine
  8
EXT - Holes
 62
256
370
-1
  6
BYLAYER
 10
112.2234211759866298
 20
219.3798750844402718
 30
0.0
 11
112.2234211759866298
 21
229.9798750844402662
 31
0.0
  0
LINE
  5
8D
100
AcDbEntity
100
AcDbLine
  8
EXT - Holes
 62
256
370
-1
  6
BYLAYER
 10
112.2234211759866298
 20
229.9798750844402662
 30
0.0
 11
86.7234211759866298
 21
229.9798750844402662
 31
0.0
  0
LINE
  5
8E
100
AcDbEntity
100
AcDbLine
  8
EXT - Holes
 62
256
370
-1
  6
BYLAYER
 10
86.7234211759866298
 20
229.9798750844402662
 30
0.0
 11
86.7234211759866298
 21
219.3798750844402718
 31
0.0
  0
LINE
  5
8F
100
AcDbEntity
100
AcDbLine
  8
EXT - Holes
 62
256
370
-1
  6
BYLAYER
 10
96.9734211759866298
 20
232.9798750844402662
 30
0.0
 11
102.4734211759866298
 21
232.9798750844402662
 31
0.0
  0
LINE
  5
90
100
AcDbEntity
100
AcDbLine
  8
EXT - Holes
 62
256
370
-1
  6
BYLAYER
 10
132.4734211759866298
 20
232.9798750844402662
 30
0.0
 11
132.4734211759866298
 21
235.4798750844402662
 31
0.0
  0
LINE
  5
91
100
AcDbEntity
100
AcDbLine
  8
EXT - Holes
 62
256
370
-1
  6
BYLAYER
 10
132.4734211759866298
 20
235.4798750844402662
 30
0.0
 11
126.9734211759866298
 21
235.4798750844402662
 31
0.0
  0
LINE
  5
92
100
AcDbEntity
100
AcDbLine
  8
EXT - Holes
 62
256
370
-1
  6
BYLAYER
 10
126.9734211759866298
 20
235.4798750844402662
 30
0.0
 11
126.9734211759866298
 21
232.9798750844402662
 31
0.0
  0
LINE
  5
93
100
AcDbEntity
100
AcDbLine
  8
EXT - Holes
 62
256
370
-1
  6
BYLAYER
 10
116.7234211759866298
 20
219.3798750844402718
 30
0.0
 11
142.2234211759866298
 21
219.3798750844402718
 31
0.0
  0
LINE
  5
94
100
AcDbEntity
100
AcDbLine
  8
EXT - Holes
 62
256
370
-1
  6
BYLAYER
 10
142.2234211759866298
 20
219.3798750844402718
 30
0.0
 11
142.2234211759866298
 21
229.9798750844402662
 31
0.0
  0
LINE
  5
95
100
AcDbEntity
100
AcDbLine
  8
EXT - Holes
 62
256
370
-1
  6
BYLAYER
 10
142.2234211759866298
 20
229.9798750844402662
 30
0.0
 11
116.7234211759866298
 21
229.9798750844402662
 31
0.0
  0
LINE
  5
96
100
AcDbEntity
100
AcDbLine
  8
EXT - Holes
 62
256
370
-1
  6
BYLAYER
 10
116.7234211759866298
 20
229.9798750844402662
 30
0.0
 11
116.7234211759866298
 21
219.3798750844402718
 31
0.0
  0
LINE
  5
97
100
AcDbEntity
100
AcDbLine
  8
EXT - Holes
 62
256
370
-1
  6
BYLAYER
 10
126.9734211759866298
 20
232.9798750844402662
 30
0.0
 11
132.4734211759866298
 21
232.9798750844402662
 31
0.0
  0
LINE
  5
98
100
AcDbEntity
100
AcDbLine
  8
EXT - Holes
 62
256
370
-1
  6
BYLAYER
 10
66.9734211759866298
 20
213.4798750844402662
 30
0.0
 11
66.9734211759866298
 21
210.9798750844402662
 31
0.0
  0
LINE
  5
99
100
AcDbEntity
100
AcDbLine
  8
EXT - Holes
 62
256
370
-1
  6
BYLAYER
 10
102.4734211759866298
 20
210.9798750844402662
 30
0.0
 11
102.4734211759866298
 21
213.4798750844402662
 31
0.0
  0
LINE
  5
9A
100
AcDbEntity
100
AcDbLine
  8
EXT - Holes
 62
256
370
-1
  6
BYLAYER
 10
102.4734211759866298
 20
213.4798750844402662
 30
0.0
 11
96.9734211759866298
 21
213.4798750844402662
 31
0.0
  0
LINE
  5
9B
100
AcDbEntity
100
AcDbLine
  8
EXT - Holes
 62
256
370
-1
  6
BYLAYER
 10
96.9734211759866298
 20
213.4798750844402662
 30
0.0
 11
96.9734211759866298
 21
210.9798750844402662
 31
0.0
  0
LINE
  5
9C
100
AcDbEntity
100
AcDbLine
  8
EXT - Holes
 62
256
370
-1
  6
BYLAYER
 10
86.7234211759866298
 20
197.3798750844402718
 30
0.0
 11
112.2234211759866298
 21
197.3798750844402718
 31
0.0
  0
LINE
  5
9D
100
AcDbEntity
100
AcDbLine
  8
EXT - Holes
 62
256
370
-1
  6
BYLAYER
 10
112.2234211759866298
 20
197.3798750844402718
 30
0.0
 11
112.2234211759866298
 21
207.9798750844402662
 31
0.0
  0
LINE
  5
9E
100
AcDbEntity
100
AcDbLine
  8
EXT - Holes
 62
256
370
-1
  6
BYLAYER
 10
112.2234211759866298
 20
207.9798750844402662
 30
0.0
 11
86.7234211759866298
 21
207.9798750844402662
 31
0.0
  0
LINE
  5
9F
100
AcDbEntity
100
AcDbLine
  8
EXT - Holes
 62
256
370
-1
  6
BYLAYER
 10
86.7234211759866298
 20
207.9798750844402662
 30
0.0
 11
86.7234211759866298
 21
197.3798750844402718
 31
0.0
  0
LINE
  5
A0
100
AcDbEntity
100
AcDbLine
  8
EXT - Holes
 62
256
370
-1
  6
BYLAYER
 10
96.9734211759866298
 20
210.9798750844402662
 30
0.0
 11
102.4734211759866298
 21
210.9798750844402662
 31
0.0
  0
LINE
  5
A1
100
AcDbEntity
100
AcDbLine
  8
EXT - Holes
 62
256
370
-1
  6
BYLAYER
 10
132.4734211759866298
 20
210.9798750844402662
 30
0.0
 11
132.4734211759866298
 21
213.4798750844402662
 31
0.0
  0
LINE
  5
A2
100
AcDbEntity
100
AcDbLine
  8
EXT - Holes
 62
256
370
-1
  6
BYLAYER
 10
132.4734211759866298
 20
213.4798750844402662
 30
0.0
 11
126.9734211759866298
 21
213.4798750844402662
 31
0.0
  0
LINE
  5
A3
100
AcDbEntity
100
AcDbLine
  8
EXT - Holes
 62
256
370
-1
  6
BYLAYER
 10
126.9734211759866298
 20
213.4798750844402662
 30
0.0
 11
126.9734211759866298
 21
210.9798750844402662
 31
0.0
  0
LINE
  5
A4
100
AcDbEntity
100
AcDbLine
  8
EXT - Holes
 62
256
370
-1
  6
BYLAYER
 10
116.7234211759866298
 20
197.3798750844402718
 30
0.0
 11
142.2234211759866298
 21
197.3798750844402718
 31
0.0
  0
LINE
  5
A5
100
AcDbEntity
100
AcDbLine
  8
EXT - Holes
 62
256
370
-1
  6
BYLAYER
 10
142.2234211759866298
 20
197.3798750844402718
 30
0.0
 11
142.2234211759866298
 21
207.9798750844402662
 31
0.0
  0
LINE
  5
A6
100
AcDbEntity
100
AcDbLine
  8
EXT - Holes
 62
256
370
-1
  6
BYLAYER
 10
142.2234211759866298
 20
207.9798750844402662
 30
0.0
 11
116.7234211759866298
 21
207.9798750844402662
 31
0.0
  0
LINE
  5
A7
100
AcDbEntity
100
AcDbLine
  8
EXT - Holes
 62
256
370
-1
  6
BYLAYER
 10
116.7234211759866298
 20
207.9798750844402662
 30
0.0
 11
116.7234211759866298
 21
197.3798750844402718
 31
0.0
  0
LINE
  5
A8
100
AcDbEntity
100
AcDbLine
  8
EXT - Holes
 62
256
370
-1
  6
BYLAYER
 10
126.9734211759866298
 20
210.9798750844402662
 30
0.0
 11
132.4734211759866298
 21
210.9798750844402662
 31
0.0
  0
LINE
  5
A9
100
AcDbEntity
100
AcDbLine
  8
EXT - Holes
 62
256
370
-1
  6
BYLAYER
 10
56.7234211759866298
 20
197.3798750844402718
 30
0.0
 11
82.2234211759866298
 21
197.3798750844402718
 31
0.0
  0
LINE
  5
AA
100
AcDbEntity
100
AcDbLine
  8
EXT - Holes
 62
256
370
-1
  6
BYLAYER
 10
82.2234211759866298
 20
197.3798750844402718
 30
0.0
 11
82.2234211759866298
 21
207.9798750844402662
 31
0.0
  0
LINE
  5
AB
100
AcDbEntity
100
AcDbLine
  8
EXT - Holes
 62
256
370
-1
  6
BYLAYER
 10
82.2234211759866298
 20
207.9798750844402662
 30
0.0
 11
56.7234211759866298
 21
207.9798750844402662
 31
0.0
  0
LINE
  5
AC
100
AcDbEntity
100
AcDbLine
  8
EXT - Holes
 62
256
370
-1
  6
BYLAYER
 10
56.7234211759866298
 20
207.9798750844402662
 30
0.0
 11
56.7234211759866298
 21
197.3798750844402718
 31
0.0
  0
LINE
  5
AD
100
AcDbEntity
100
AcDbLine
  8
EXT - Holes
 62
256
370
-1
  6
BYLAYER
 10
66.9734211759866298
 20
210.9798750844402662
 30
0.0
 11
72.4734211759866298
 21
210.9798750844402662
 31
0.0
  0
LINE
  5
AE
100
AcDbEntity
100
AcDbLine
  8
EXT - Holes
 62
256
370
-1
  6
BYLAYER
 10
72.4734211759866298
 20
210.9798750844402662
 30
0.0
 11
72.4734211759866298
 21
213.4798750844402662
 31
0.0
  0
LINE
  5
AF
100
AcDbEntity
100
AcDbLine
  8
EXT - Holes
 62
256
370
-1
  6
BYLAYER
 10
72.4734211759866298
 20
213.4798750844402662
 30
0.0
 11
66.9734211759866298
 21
213.4798750844402662
 31
0.0
  0
LINE
  5
B0
100
AcDbEntity
100
AcDbLine
  8
EXT - Holes
 62
256
370
-1
  6
BYLAYER
 10
22.0
 20
139.4000000000000057
 30
0.0
 11
47.5
 21
139.4000000000000057
 31
0.0
  0
LINE
  5
B1
100
AcDbEntity
100
AcDbLine
  8
EXT - Holes
 62
256
370
-1
  6
BYLAYER
 10
47.5
 20
139.4000000000000057
 30
0.0
 11
47.5
 21
150.0
 31
0.0
  0
LINE
  5
B2
100
AcDbEntity
100
AcDbLine
  8
EXT - Holes
 62
256
370
-1
  6
BYLAYER
 10
47.5
 20
150.0
 30
0.0
 11
22.0
 21
150.0
 31
0.0
  0
LINE
  5
B3
100
AcDbEntity
100
AcDbLine
  8
EXT - Holes
 62
256
370
-1
  6
BYLAYER
 10
22.0
 20
150.0
 30
0.0
 11
22.0
 21
139.4000000000000057
 31
0.0
  0
LINE
  5
B4
100
AcDbEntity
100
AcDbLine
  8
EXT - Holes
 62
256
370
-1
  6
BYLAYER
 10
22.0
 20
121.0
 30
0.0
 11
47.5
 21
121.0
 31
0.0
  0
LINE
  5
B5
100
AcDbEntity
100
AcDbLine
  8
EXT - Holes
 62
256
370
-1
  6
BYLAYER
 10
47.5
 20
121.0
 30
0.0
 11
47.5
 21
131.5999999999999943
 31
0.0
  0
LINE
  5
B6
100
AcDbEntity
100
AcDbLine
  8
EXT - Holes
 62
256
370
-1
  6
BYLAYER
 10
47.5
 20
131.5999999999999943
 30
0.0
 11
22.0
 21
131.5999999999999943
 31
0.0
  0
LINE
  5
B7
100
AcDbEntity
100
AcDbLine
  8
EXT - Holes
 62
256
370
-1
  6
BYLAYER
 10
22.0
 20
131.5999999999999943
 30
0.0
 11
22.0
 21
121.0
 31
0.0
  0
LINE
  5
B8
100
AcDbEntity
100
AcDbLine
  8
INT - 1.5mm milling
 62
256
370
-1
  6
BYLAYER
 10
67.75
 20
90.5999999999999943
 30
0.0
 11
130.75
 21
90.5999999999999943
 31
0.0
  0
LINE
  5
B9
100
AcDbEntity
100
AcDbLine
  8
INT - 1.5mm milling
 62
256
370
-1
  6
BYLAYER
 10
130.75
 20
90.5999999999999943
 30
0.0
 11
130.75
 21
178.0
 31
0.0
  0
LINE
  5
BA
100
AcDbEntity
100
AcDbLine
  8
INT - 1.5mm milling
 62
256
370
-1
  6
BYLAYER
 10
130.75
 20
178.0
 30
0.0
 11
67.75
 21
178.0
 31
0.0
  0
LINE
  5
BB
100
AcDbEntity
100
AcDbLine
  8
INT - 1.5mm milling
 62
256
370
-1
  6
BYLAYER
 10
67.75
 20
178.0
 30
0.0
 11
67.75
 21
90.5999999999999943
 31
0.0
  0
LINE
  5
BC
100
AcDbEntity
100
AcDbLine
  8
EXT - Holes
 62
256
370
-1
  6
BYLAYER
 10
68.7499999999999716
 20
91.5999999999999801
 30
0.0
 11
129.75
 21
91.5999999999999801
 31
0.0
  0
LINE
  5
BD
100
AcDbEntity
100
AcDbLine
  8
EXT - Holes
 62
256
370
-1
  6
BYLAYER
 10
129.75
 20
91.5999999999999801
 30
0.0
 11
129.75
 21
176.9999999999999716
 31
0.0
  0
LINE
  5
BE
100
AcDbEntity
100
AcDbLine
  8
EXT - Holes
 62
256
370
-1
  6
BYLAYER
 10
129.75
 20
176.9999999999999716
 30
0.0
 11
68.7499999999999716
 21
176.9999999999999716
 31
0.0
  0
LINE
  5
BF
100
AcDbEntity
100
AcDbLine
  8
EXT - Holes
 62
256
370
-1
  6
BYLAYER
 10
68.7499999999999716
 20
176.9999999999999716
 30
0.0
 11
68.7499999999999716
 21
91.5999999999999801
 31
0.0
  0
LINE
  5
C0
100
AcDbEntity
100
AcDbLine
  8
INT - Holes
 62
256
370
-1
  6
BYLAYER
 10
73.7499999999999716
 20
96.5999999999999801
 30
0.0
 11
124.75
 21
96.5999999999999801
 31
0.0
  0
LINE
  5
C1
100
AcDbEntity
100
AcDbLine
  8
INT - Holes
 62
256
370
-1
  6
BYLAYER
 10
124.75
 20
96.5999999999999801
 30
0.0
 11
124.75
 21
171.9999999999999716
 31
0.0
  0
LINE
  5
C2
100
AcDbEntity
100
AcDbLine
  8
INT - Holes
 62
256
370
-1
  6
BYLAYER
 10
124.75
 20
171.9999999999999716
 30
0.0
 11
73.7499999999999716
 21
171.9999999999999716
 31
0.0
  0
LINE
  5
C3
100
AcDbEntity
100
AcDbLine
  8
INT - Holes
 62
256
370
-1
  6
BYLAYER
 10
73.7499999999999716
 20
171.9999999999999716
 30
0.0
 11
73.7499999999999716
 21
96.5999999999999801
 31
0.0
  0
LINE
  5
C4
100
AcDbEntity
100
AcDbLine
  8
INT - Outline
 62
256
370
-1
  6
BYLAYER
 10
17.2807612039687797
 20
241.5449690204227977
 30
0.0
 11
173.1794380841915881
 21
241.5449690204227977
 31
0.0
  0
LINE
  5
C5
100
AcDbEntity
100
AcDbLine
  8
INT - Outline
 62
256
370
-1
  6
BYLAYER
 10
173.1794380841915881
 20
241.5449690204227977
 30
0.0
 11
173.1794380841915881
 21
87.152559549670741
 31
0.0
  0
LINE
  5
C6
100
AcDbEntity
100
AcDbLine
  8
INT - Outline
 62
256
370
-1
  6
BYLAYER
 10
173.1794380841915881
 20
87.152559549670741
 30
0.0
 11
17.2807612039687797
 21
87.152559549670741
 31
0.0
  0
LINE
  5
C7
100
AcDbEntity
100
AcDbLine
  8
INT - Outline
 62
256
370
-1
  6
BYLAYER
 10
17.2807612039687797
 20
87.152559549670741
 30
0.0
 11
17.2807612039687797
 21
241.5449690204227977
 31
0.0
  0
CIRCLE
  5
C8
100
AcDbEntity
100
AcDbCircle
  8
INT - M2 countersinks
 62
256
370
-1
  6
BYLAYER
 10
64.0
 20
176.0
 30
0.0
 40
2.2999999999999998
  0
CIRCLE
  5
C9
100
AcDbEntity
100
AcDbCircle
  8
INT - Holes
 62
256
370
-1
  6
BYLAYER
 10
64.0
 20
176.0
 30
0.0
 40
1.1000000000000001
  0
CIRCLE
  5
CA
100
AcDbEntity
100
AcDbCircle
  8
INT - M2 countersinks
 62
256
370
-1
  6
BYLAYER
 10
135.0
 20
176.0
 30
0.0
 40
2.2999999999999998
  0
CIRCLE
  5
CB
100
AcDbEntity
100
AcDbCircle
  8
INT - Holes
 62
256
370
-1
  6
BYLAYER
 10
135.0
 20
176.0
 30
0.0
 40
1.1000000000000001
  0
CIRCLE
  5
CC
100
AcDbEntity
100
AcDbCircle
  8
INT - M2 countersinks
 62
256
370
-1
  6
BYLAYER
 10
135.0
 20
93.0
 30
0.0
 40
2.2999999999999998
  0
CIRCLE
  5
CD
100
AcDbEntity
100
AcDbCircle
  8
INT - Holes
 62
256
370
-1
  6
BYLAYER
 10
135.0
 20
93.0
 30
0.0
 40
1.1000000000000001
  0
CIRCLE
  5
CE
100
AcDbEntity
100
AcDbCircle
  8
INT - M2 countersinks
 62
256
370
-1
  6
BYLAYER
 10
64.0
 20
93.0
 30
0.0
 40
2.2999999999999998
  0
CIRCLE
  5
CF
100
AcDbEntity
100
AcDbCircle
  8
INT - Holes
 62
256
370
-1
  6
BYLAYER
 10
64.0
 20
93.0
 30
0.0
 40
1.1000000000000001
  0
ENDSEC
  0
SECTION
  2
OBJECTS
  0
DICTIONARY
  5
C
100
AcDbDictionary
280
0
281
1
  3
ACAD_GROUP
350
D
  3
ACAD_LAYOUT
350
1A
  3
ACAD_MLINESTYLE
350
17
  3
ACAD_PLOTSETTINGS
350
19
  3
ACAD_PLOTSTYLENAME
350
E
  3
AcDbVariableDictionary
350
D0
  3
QCAD_OBJECTS
350
D1
  0
DICTIONARY
  5
D
100
AcDbDictionary
280
0
281
1
  0
ACDBDICTIONARYWDFLT
  5
E
100
AcDbDictionary
281
1
  3
Normal
350
F
100
AcDbDictionaryWithDefault
340
F
  0
ACDBPLACEHOLDER
  5
F
  0
DICTIONARY
  5
17
100
AcDbDictionary
280
0
281
1
  3
Standard
350
18
  0
MLINESTYLE
  5
18
100
AcDbMlineStyle
  2
STANDARD
 70
0
  3

 62
256
 51
90.0
 52
90.0
 71
2
 49
0.5
 62
256
  6
BYLAYER
 49
-0.5
 62
256
  6
BYLAYER
  0
DICTIONARY
  5
19
100
AcDbDictionary
280
0
281
1
  0
DICTIONARY
  5
1A
100
AcDbDictionary
281
1
  3
Layout1
350
1E
  3
Layout2
350
26
  3
Model
350
22
  0
LAYOUT
  5
1E
100
AcDbPlotSettings
  1

  2
none_device
  4

  6

 40
0.0
 41
0.0
 42
0.0
 43
0.0
 44
0.0
 45
0.0
 46
0.0
 47
0.0
 48
0.0
 49
0.0
140
0.0
141
0.0
142
1.0
143
1.0
 70
688
 72
0
 73
0
 74
5
  7

 75
16
147
1.0
148
0.0
149
0.0
100
AcDbLayout
  1
Layout1
 70
1
 71
1
 10
0.0
 20
0.0
 11
420.0
 21
297.0
 12
0.0
 22
0.0
 32
0.0
 14
100000000000000000000.0
 24
100000000000000000000.0
 34
100000000000000000000.0
 15
-100000000000000000000.0
 25
-100000000000000000000.0
 35
-100000000000000000000.0
146
0.0
 13
0.0
 23
0.0
 33
0.0
 16
1.0
 26
0.0
 36
0.0
 17
0.0
 27
1.0
 37
0.0
 76
0
330
1B
  0
LAYOUT
  5
22
100
AcDbPlotSettings
  1

  2
none_device
  4

  6

 40
0.0
 41
0.0
 42
0.0
 43
0.0
 44
0.0
 45
0.0
 46
0.0
 47
0.0
 48
0.0
 49
0.0
140
0.0
141
0.0
142
1.0
143
1.0
 70
1712
 72
0
 73
0
 74
0
  7

 75
0
147
1.0
148
0.0
149
0.0
100
AcDbLayout
  1
Model
 70
1
 71
0
 10
0.0
 20
0.0
 11
12.0
 21
9.0
 12
0.0
 22
0.0
 32
0.0
 14
0.0
 24
0.0
 34
0.0
 15
0.0
 25
0.0
 35
0.0
146
0.0
 13
0.0
 23
0.0
 33
0.0
 16
1.0
 26
0.0
 36
0.0
 17
0.0
 27
1.0
 37
0.0
 76
0
330
1F
  0
LAYOUT
  5
26
100
AcDbPlotSettings
  1

  2
none_device
  4

  6

 40
0.0
 41
0.0
 42
0.0
 43
0.0
 44
0.0
 45
0.0
 46
0.0
 47
0.0
 48
0.0
 49
0.0
140
0.0
141
0.0
142
1.0
143
1.0
 70
688
 72
0
 73
0
 74
5
  7

 75
16
147
1.0
148
0.0
149
0.0
100
AcDbLayout
  1
Layout2
 70
1
 71
2
 10
0.0
 20
0.0
 11
12.0
 21
9.0
 12
0.0
 22
0.0
 32
0.0
 14
0.0
 24
0.0
 34
0.0
 15
0.0
 25
0.0
 35
0.0
146
0.0
 13
0.0
 23
0.0
 33
0.0
 16
1.0
 26
0.0
 36
0.0
 17
0.0
 27
1.0
 37
0.0
 76
0
330
23
  0
DICTIONARY
  5
D0
100
AcDbDictionary
281
1
  3
DIMASSOC
350
D3
  3
HIDETEXT
350
D2
  0
DICTIONARYVAR
  5
D2
100
DictionaryVariables
280
0
  1
2
  0
DICTIONARYVAR
  5
D3
100
DictionaryVariables
280
0
  1
1
  0
DICTIONARY
  5
D1
100
AcDbDictionary
281
1
  3
Grid/DisplayGrid00
350
D4
  3
Grid/DisplayGrid01
350
D5
  3
Grid/DisplayGrid02
350
D6
  3
Grid/DisplayGrid03
350
D7
  3
Grid/GridSpacingX00
350
D8
  3
Grid/GridSpacingX01
350
D9
  3
Grid/GridSpacingX02
350
DA
  3
Grid/GridSpacingX03
350
DB
  3
Grid/GridSpacingY00
350
DC
  3
Grid/GridSpacingY01
350
DD
  3
Grid/GridSpacingY02
350
DE
  3
Grid/GridSpacingY03
350
DF
  3
Grid/IsometricGrid00
350
E0
  3
Grid/IsometricGrid01
350
E1
  3
Grid/IsometricGrid02
350
E2
  3
Grid/IsometricGrid03
350
E3
  3
Grid/IsometricProjection00
350
E4
  3
Grid/IsometricProjection01
350
E5
  3
Grid/IsometricProjection02
350
E6
  3
Grid/IsometricProjection03
350
E7
  3
Grid/MetaGridSpacingX00
350
E8
  3
Grid/MetaGridSpacingX01
350
E9
  3
Grid/MetaGridSpacingX02
350
EA
  3
Grid/MetaGridSpacingX03
350
EB
  3
Grid/MetaGridSpacingY00
350
EC
  3
Grid/MetaGridSpacingY01
350
ED
  3
Grid/MetaGridSpacingY02
350
EE
  3
Grid/MetaGridSpacingY03
350
EF
  3
MultiPageSettings/Columns
350
F0
  3
MultiPageSettings/GlueMarginsBottom
350
F1
  3
MultiPageSettings/GlueMarginsLeft
350
F2
  3
MultiPageSettings/GlueMarginsRight
350
F3
  3
MultiPageSettings/GlueMarginsTop
350
F4
  3
MultiPageSettings/PrintCropMarks
350
F5
  3
MultiPageSettings/Rows
350
F6
  3
PageSettings/OffsetX
350
F7
  3
PageSettings/OffsetY
350
F8
  3
PageSettings/PageOrientation
350
F9
  3
PageSettings/PaperHeight
350
FA
  3
PageSettings/PaperWidth
350
FB
  3
PageSettings/Scale
350
FC
  3
PageSettings/ShowPaperBorders
350
FD
  3
UnitSettings/PaperUnit
350
FE
  0
XRECORD
  5
D4
330
D1
100
AcDbXrecord
280
1
290
1
  0
XRECORD
  5
D5
330
D1
100
AcDbXrecord
280
1
290
1
  0
XRECORD
  5
D6
330
D1
100
AcDbXrecord
280
1
290
1
  0
XRECORD
  5
D7
330
D1
100
AcDbXrecord
280
1
290
1
  0
XRECORD
  5
D8
330
D1
100
AcDbXrecord
280
1
1000
auto
  0
XRECORD
  5
D9
330
D1
100
AcDbXrecord
280
1
1000
auto
  0
XRECORD
  5
DA
330
D1
100
AcDbXrecord
280
1
1000
auto
  0
XRECORD
  5
DB
330
D1
100
AcDbXrecord
280
1
1000
auto
  0
XRECORD
  5
DC
330
D1
100
AcDbXrecord
280
1
1000
auto
  0
XRECORD
  5
DD
330
D1
100
AcDbXrecord
280
1
1000
auto
  0
XRECORD
  5
DE
330
D1
100
AcDbXrecord
280
1
1000
auto
  0
XRECORD
  5
DF
330
D1
100
AcDbXrecord
280
1
1000
auto
  0
XRECORD
  5
E0
330
D1
100
AcDbXrecord
280
1
290
0
  0
XRECORD
  5
E1
330
D1
100
AcDbXrecord
280
1
290
0
  0
XRECORD
  5
E2
330
D1
100
AcDbXrecord
280
1
290
0
  0
XRECORD
  5
E3
330
D1
100
AcDbXrecord
280
1
290
0
  0
XRECORD
  5
E4
330
D1
100
AcDbXrecord
280
1
 90
0
  0
XRECORD
  5
E5
330
D1
100
AcDbXrecord
280
1
 90
0
  0
XRECORD
  5
E6
330
D1
100
AcDbXrecord
280
1
 90
0
  0
XRECORD
  5
E7
330
D1
100
AcDbXrecord
280
1
 90
0
  0
XRECORD
  5
E8
330
D1
100
AcDbXrecord
280
1
1000
auto
  0
XRECORD
  5
E9
330
D1
100
AcDbXrecord
280
1
1000
auto
  0
XRECORD
  5
EA
330
D1
100
AcDbXrecord
280
1
1000
auto
  0
XRECORD
  5
EB
330
D1
100
AcDbXrecord
280
1
1000
auto
  0
XRECORD
  5
EC
330
D1
100
AcDbXrecord
280
1
1000
auto
  0
XRECORD
  5
ED
330
D1
100
AcDbXrecord
280
1
1000
auto
  0
XRECORD
  5
EE
330
D1
100
AcDbXrecord
280
1
1000
auto
  0
XRECORD
  5
EF
330
D1
100
AcDbXrecord
280
1
1000
auto
  0
XRECORD
  5
F0
330
D1
100
AcDbXrecord
280
1
 90
1
  0
XRECORD
  5
F1
330
D1
100
AcDbXrecord
280
1
 40
10.0
  0
XRECORD
  5
F2
330
D1
100
AcDbXrecord
280
1
 40
10.0
  0
XRECORD
  5
F3
330
D1
100
AcDbXrecord
280
1
 40
10.0
  0
XRECORD
  5
F4
330
D1
100
AcDbXrecord
280
1
 40
10.0
  0
XRECORD
  5
F5
330
D1
100
AcDbXrecord
280
1
290
0
  0
XRECORD
  5
F6
330
D1
100
AcDbXrecord
280
1
 90
1
  0
XRECORD
  5
F7
330
D1
100
AcDbXrecord
280
1
 40
0.0
  0
XRECORD
  5
F8
330
D1
100
AcDbXrecord
280
1
 40
0.0
  0
XRECORD
  5
F9
330
D1
100
AcDbXrecord
280
1
1000
Portrait
  0
XRECORD
  5
FA
330
D1
100
AcDbXrecord
280
1
 40
297.0
  0
XRECORD
  5
FB
330
D1
100
AcDbXrecord
280
1
 40
210.0
  0
XRECORD
  5
FC
330
D1
100
AcDbXrecord
280
1
1000
1:1
  0
XRECORD
  5
FD
330
D1
100
AcDbXrecord
280
1
290
1
  0
XRECORD
  5
FE
330
D1
100
AcDbXrecord
280
1
 90
4
  0
ENDSEC
  0
EOF
